<?xml version="1.0" encoding="utf-8"?>
<!-- Generator: Adobe Illustrator 15.0.0, SVG Export Plug-In . SVG Version: 6.00 Build 0)  -->
<!DOCTYPE svg PUBLIC "-//W3C//DTD SVG 1.1//EN" "http://www.w3.org/Graphics/SVG/1.1/DTD/svg11.dtd">
<svg version="1.1" id="Слой_1" xmlns="http://www.w3.org/2000/svg" xmlns:xlink="http://www.w3.org/1999/xlink" x="0px" y="0px"
	 width="566.93px" height="566.93px" viewBox="0 0 566.93 566.93" enable-background="new 0 0 566.93 566.93" xml:space="preserve">
<g id="Слой_1_1_">
	<polygon display="none" fill="none" stroke="#333333" stroke-miterlimit="10" points="389.78,403.922 283.465,297.607 
		177.15,403.922 163.008,389.78 269.323,283.465 163.008,177.15 177.15,163.008 283.465,269.323 389.78,163.008 403.922,177.15 
		297.607,283.465 403.922,389.78 	"/>
</g>
<g id="Слой_2">
</g>
<polygon fill="#333333" points="331.781,235.15 406.946,235.15 406.946,255.15 311.781,255.15 311.781,160.111 331.781,160.111 "/>
<polygon fill="#333333" points="235.118,331.812 160.079,331.812 160.079,311.812 255.118,311.812 255.118,406.851 235.118,406.851 
	"/>
<polygon fill="#333333" points="235.15,235.15 235.15,159.986 255.15,159.986 255.15,255.15 160.111,255.15 160.111,235.15 "/>
<polygon fill="#333333" points="331.827,331.826 331.827,406.865 311.827,406.865 311.827,311.826 406.866,311.826 406.866,331.826 
	"/>
</svg>
