<?xml version="1.0" encoding="utf-8"?>
<!-- Generator: Adobe Illustrator 15.0.0, SVG Export Plug-In . SVG Version: 6.00 Build 0)  -->
<!DOCTYPE svg PUBLIC "-//W3C//DTD SVG 1.1//EN" "http://www.w3.org/Graphics/SVG/1.1/DTD/svg11.dtd">
<svg version="1.1" id="Слой_1" xmlns="http://www.w3.org/2000/svg" xmlns:xlink="http://www.w3.org/1999/xlink" x="0px" y="0px"
	 width="566.93px" height="566.93px" viewBox="0 0 566.93 566.93" enable-background="new 0 0 566.93 566.93" xml:space="preserve">
<path id="профиль" fill="#333333" d="M177.517,404.789L177.517,404.789c-8.126-5.625-8.126-17.501-1.25-23.752
	c15.626-14.376,55.63-28.128,55.63-28.128c-36.878-20.002-58.131-61.882-51.88-105.635c6.25-46.88,45.004-83.758,92.509-88.759
	c62.507-6.251,115.012,42.504,115.012,103.76c0,38.129-20.627,72.507-53.131,90.634c0,0,40.63,13.752,55.632,28.128
	c6.875,6.251,6.25,17.502-1.251,23.752h-0.625c-5.625,4.376-14.376,4.376-19.377-0.625c-13.126-12.501-31.254-20.002-50.005-20.002
	l0,0c-8.751,0-15.627-6.875-15.627-15.626v-27.503c0-5,3.125-9.376,7.501-11.251l0,0c24.377-10.626,42.505-33.753,45.005-60.006
	c5.001-47.505-36.879-87.509-85.009-79.383c-33.753,5.626-61.881,40.004-60.631,74.383c1.25,28.751,17.501,53.13,43.754,64.381
	l2.5,1.25c4.375,1.875,6.875,6.251,6.875,10.626v28.128c0,8.751-6.875,15.626-15.626,15.626l0,0
	c-18.752,0-36.878,6.876-50.005,20.002C192.519,408.54,183.768,409.165,177.517,404.789z"/>
</svg>
