<?xml version="1.0" encoding="utf-8"?>
<!-- Generator: Adobe Illustrator 15.0.0, SVG Export Plug-In . SVG Version: 6.00 Build 0)  -->
<!DOCTYPE svg PUBLIC "-//W3C//DTD SVG 1.1//EN" "http://www.w3.org/Graphics/SVG/1.1/DTD/svg11.dtd">
<svg version="1.1" xmlns="http://www.w3.org/2000/svg" xmlns:xlink="http://www.w3.org/1999/xlink" x="0px" y="0px"
	 width="566.93px" height="566.93px" viewBox="0 0 566.93 566.93" enable-background="new 0 0 566.93 566.93" xml:space="preserve">
<g id="Слой_1">
	<polygon fill="#333333" points="389.78,403.922 283.465,297.607 177.15,403.922 163.008,389.78 269.323,283.465 163.008,177.15 
		177.15,163.008 283.465,269.323 389.78,163.008 403.922,177.15 297.607,283.465 403.922,389.78 	"/>
	<polygon display="none" fill="#333333" points="406.851,406.851 325.985,406.851 325.985,386.851 372.708,386.851 283.465,297.607 
		194.221,386.851 240.945,386.851 240.945,406.851 160.079,406.851 160.079,325.985 180.079,325.985 180.079,372.708 
		269.323,283.465 180.079,194.221 180.079,240.945 160.079,240.945 160.079,160.079 240.945,160.079 240.945,180.079 
		194.221,180.079 283.465,269.323 372.708,180.079 325.985,180.079 325.985,160.079 406.851,160.079 406.851,240.945 
		386.851,240.945 386.851,194.221 297.607,283.465 386.851,372.708 386.851,325.985 406.851,325.985 	"/>
</g>
<g id="Слой_2">
</g>
</svg>
