<?xml version="1.0" encoding="utf-8"?>
<!-- Generator: Adobe Illustrator 15.0.0, SVG Export Plug-In . SVG Version: 6.00 Build 0)  -->
<!DOCTYPE svg PUBLIC "-//W3C//DTD SVG 1.1//EN" "http://www.w3.org/Graphics/SVG/1.1/DTD/svg11.dtd">
<svg version="1.1" id="Слой_1" xmlns="http://www.w3.org/2000/svg" xmlns:xlink="http://www.w3.org/1999/xlink" x="0px" y="0px"
	 width="566.93px" height="566.93px" viewBox="0 0 566.93 566.93" enable-background="new 0 0 566.93 566.93" xml:space="preserve">
<g id="Слой_1_1_">
	<polygon display="none" fill="none" stroke="#333333" stroke-miterlimit="10" points="389.78,403.922 283.465,297.607 
		177.15,403.922 163.008,389.78 269.323,283.465 163.008,177.15 177.15,163.008 283.465,269.323 389.78,163.008 403.922,177.15 
		297.607,283.465 403.922,389.78 	"/>
</g>
<g id="Слой_2">
</g>
<polygon fill="#333333" points="240.976,311.812 255.118,325.953 194.221,386.851 255.244,386.851 255.244,406.851 160.079,406.851 
	160.079,311.812 180.079,311.812 180.079,372.708 "/>
<polygon fill="#333333" points="325.953,255.118 311.812,240.976 372.708,180.079 311.812,180.079 311.812,160.079 406.851,160.079 
	406.851,255.118 386.851,255.118 386.851,194.221 "/>
</svg>
