<?xml version="1.0" encoding="utf-8"?>
<!-- Generator: Adobe Illustrator 15.0.0, SVG Export Plug-In . SVG Version: 6.00 Build 0)  -->
<!DOCTYPE svg PUBLIC "-//W3C//DTD SVG 1.1//EN" "http://www.w3.org/Graphics/SVG/1.1/DTD/svg11.dtd">
<svg version="1.1" id="Layer_1" xmlns="http://www.w3.org/2000/svg" xmlns:xlink="http://www.w3.org/1999/xlink" x="0px" y="0px"
	 width="234.791px" height="77.128px" viewBox="304.127 560.411 234.791 77.128"
	 enable-background="new 304.127 560.411 234.791 77.128" xml:space="preserve">
<g>
	<path d="M420.083,565.538c0-0.223-0.08-0.415-0.241-0.575c-0.161-0.161-0.358-0.242-0.595-0.242h-2.488
		c-1.04,0-1.812,0.239-2.313,0.715c-0.502,0.477-0.753,1.068-0.753,1.774v0.52c0,0.594,0.146,1.105,0.437,1.532
		s0.716,0.721,1.272,0.882c-0.569,0.879-1.114,1.814-1.635,2.805c-0.123,0.235-0.187,0.435-0.187,0.595
		c0,0.211,0.078,0.384,0.232,0.52c0.154,0.137,0.338,0.205,0.548,0.205c0.384,0,0.638-0.155,0.762-0.464
		c0.792-1.585,1.424-2.743,1.895-3.474h1.432v3.139c0,0.223,0.077,0.412,0.23,0.566c0.155,0.154,0.345,0.232,0.566,0.232
		c0.235,0,0.434-0.078,0.595-0.232s0.241-0.344,0.241-0.566L420.083,565.538L420.083,565.538z M416.833,569.03
		c-0.545,0-0.941-0.121-1.188-0.361c-0.247-0.242-0.371-0.529-0.371-0.864v-0.521c0-0.31,0.12-0.582,0.361-0.816
		c0.241-0.235,0.635-0.354,1.181-0.354h1.635v2.917L416.833,569.03L416.833,569.03z M409.533,571.018
		c0,0.644-0.176,1.133-0.529,1.467c-0.353,0.334-0.845,0.501-1.477,0.501c-1.275,0-1.913-0.489-1.913-1.467v-0.13
		c0-0.979,0.655-1.467,1.969-1.467h1.95V571.018L409.533,571.018z M411.985,573.544c0-0.261-0.105-0.446-0.315-0.558
		c-0.187-0.111-0.319-0.245-0.398-0.398c-0.081-0.155-0.121-0.405-0.121-0.752v-3.475c0-1.288-0.251-2.229-0.752-2.823
		c-0.503-0.594-1.392-0.892-2.666-0.892c-1.164,0-2.074,0.21-2.73,0.632c-0.235,0.148-0.353,0.347-0.353,0.594
		c0,0.187,0.067,0.348,0.203,0.483c0.138,0.136,0.298,0.204,0.483,0.204c0.136,0,0.266-0.037,0.39-0.111
		c0.559-0.31,1.188-0.464,1.896-0.464c0.743,0,1.248,0.173,1.514,0.521c0.268,0.347,0.399,0.917,0.399,1.709v0.464h-2.1
		c-1.14,0-1.997,0.245-2.571,0.733c-0.576,0.489-0.864,1.137-0.864,1.941v0.147c0,0.817,0.27,1.478,0.809,1.979
		c0.538,0.501,1.354,0.752,2.442,0.752c1.176,0,2.043-0.316,2.601-0.947c0.086,0.248,0.21,0.434,0.371,0.558
		c0.261,0.26,0.576,0.39,0.947,0.39C411.713,574.231,411.985,574.003,411.985,573.544z M401.992,565.465
		c0-0.224-0.08-0.415-0.241-0.576s-0.353-0.242-0.576-0.242c-0.223,0-0.414,0.081-0.575,0.242c-0.16,0.161-0.241,0.353-0.241,0.576
		v3.046h-3.696v-3.046c0-0.224-0.077-0.415-0.231-0.576s-0.344-0.242-0.565-0.242c-0.225,0-0.418,0.081-0.586,0.242
		c-0.167,0.161-0.25,0.353-0.25,0.576v7.986c0,0.224,0.083,0.412,0.25,0.566c0.168,0.155,0.361,0.231,0.586,0.231
		c0.223,0,0.411-0.077,0.565-0.231c0.154-0.155,0.231-0.343,0.231-0.566v-3.528h3.696v3.528c0,0.224,0.081,0.412,0.241,0.566
		c0.161,0.154,0.354,0.231,0.575,0.231c0.225,0,0.415-0.077,0.576-0.231s0.241-0.343,0.241-0.566V565.465z M386.037,573.34
		c0,0.223,0.078,0.408,0.231,0.557c0.155,0.148,0.345,0.223,0.566,0.223h2.823c1.053,0,1.823-0.231,2.313-0.696
		c0.49-0.466,0.733-1.094,0.733-1.886v-0.501c0-0.779-0.284-1.398-0.854-1.856c-0.569-0.458-1.405-0.688-2.508-0.688h-1.709v-2.989
		c0-0.235-0.074-0.428-0.223-0.576c-0.148-0.149-0.335-0.224-0.559-0.224c-0.234,0-0.43,0.074-0.585,0.224
		c-0.153,0.147-0.231,0.34-0.231,0.576v7.838H386.037z M387.635,569.959h1.82c1.09,0,1.635,0.385,1.635,1.151v0.334
		c0,0.396-0.104,0.7-0.315,0.91c-0.21,0.21-0.589,0.315-1.134,0.315h-2.006V569.959z M377.382,564.721
		c-0.21,0-0.394,0.071-0.548,0.214c-0.155,0.142-0.232,0.319-0.232,0.529v2.21c0,1.969-0.147,3.337-0.444,4.104
		c-0.101,0.322-0.268,0.645-0.502,0.966c-0.235,0.322-0.354,0.576-0.354,0.762c0,0.21,0.077,0.393,0.232,0.548
		c0.153,0.153,0.343,0.231,0.565,0.231c0.458,0,0.886-0.384,1.281-1.151c0.569-1.151,0.854-2.879,0.854-5.183v-1.782h3.528v7.336
		c0,0.223,0.074,0.411,0.224,0.566c0.148,0.155,0.341,0.232,0.575,0.232c0.247,0,0.448-0.077,0.604-0.232
		c0.154-0.155,0.232-0.344,0.232-0.566V565.5c0-0.21-0.078-0.393-0.232-0.548c-0.155-0.154-0.338-0.231-0.548-0.231L377.382,564.721
		L377.382,564.721z M371.772,571.018c0,0.644-0.177,1.133-0.529,1.467c-0.354,0.334-0.845,0.501-1.478,0.501
		c-1.274,0-1.912-0.489-1.912-1.467v-0.13c0-0.979,0.655-1.467,1.969-1.467h1.95V571.018L371.772,571.018z M374.225,573.544
		c0-0.261-0.104-0.446-0.314-0.558c-0.188-0.111-0.319-0.245-0.399-0.398c-0.081-0.155-0.121-0.405-0.121-0.752v-3.475
		c0-1.288-0.251-2.229-0.752-2.823c-0.502-0.594-1.391-0.892-2.666-0.892c-1.164,0-2.073,0.21-2.729,0.632
		c-0.235,0.148-0.354,0.347-0.354,0.594c0,0.187,0.068,0.348,0.204,0.483c0.138,0.136,0.297,0.204,0.483,0.204
		c0.136,0,0.266-0.037,0.39-0.111c0.559-0.31,1.188-0.464,1.896-0.464c0.743,0,1.248,0.173,1.514,0.521
		c0.267,0.347,0.399,0.917,0.399,1.709v0.464h-2.1c-1.14,0-1.997,0.245-2.571,0.733c-0.576,0.489-0.864,1.137-0.864,1.941v0.147
		c0,0.817,0.27,1.478,0.809,1.979c0.538,0.501,1.354,0.752,2.442,0.752c1.176,0,2.043-0.316,2.601-0.947
		c0.086,0.248,0.21,0.434,0.371,0.558c0.26,0.26,0.576,0.39,0.947,0.39C373.952,574.231,374.225,574.003,374.225,573.544z
		 M364.231,565.465c0-0.224-0.08-0.415-0.241-0.576s-0.354-0.242-0.576-0.242s-0.414,0.081-0.575,0.242s-0.241,0.353-0.241,0.576
		v3.046H358.9v-3.046c0-0.224-0.077-0.415-0.231-0.576c-0.155-0.161-0.344-0.242-0.566-0.242c-0.224,0-0.418,0.081-0.585,0.242
		c-0.168,0.161-0.251,0.353-0.251,0.576v7.986c0,0.224,0.083,0.412,0.251,0.566c0.167,0.155,0.361,0.231,0.585,0.231
		s0.411-0.077,0.566-0.231c0.154-0.155,0.231-0.343,0.231-0.566v-3.528h3.696v3.528c0,0.224,0.08,0.412,0.241,0.566
		s0.354,0.231,0.575,0.231c0.224,0,0.415-0.077,0.576-0.231s0.241-0.343,0.241-0.566L364.231,565.465L364.231,565.465z
		 M353.329,570.386c0,1.572-0.706,2.358-2.118,2.358c-1.398,0-2.099-0.786-2.099-2.358v-1.896c0-1.571,0.7-2.358,2.099-2.358
		c1.412,0,2.118,0.787,2.118,2.358V570.386z M354.944,570.386v-1.914c0-1.139-0.307-2.064-0.919-2.777
		c-0.613-0.712-1.552-1.067-2.814-1.067c-1.25,0-2.186,0.355-2.805,1.067s-0.93,1.639-0.93,2.777v1.914
		c0,1.139,0.311,2.063,0.93,2.776c0.619,0.712,1.555,1.068,2.805,1.068c1.264,0,2.201-0.356,2.814-1.068
		S354.944,571.525,354.944,570.386z M339.269,572.839l4.235-4.662v5.274c0,0.235,0.077,0.435,0.231,0.595
		c0.154,0.161,0.35,0.241,0.585,0.241c0.234,0,0.431-0.08,0.586-0.241c0.153-0.161,0.23-0.359,0.23-0.595v-7.986
		c0-0.224-0.074-0.412-0.223-0.566c-0.149-0.154-0.341-0.231-0.576-0.231c-0.234,0-0.433,0.077-0.594,0.231
		s-0.241,0.344-0.241,0.566v0.612l-4.235,4.682v-5.293c0-0.224-0.076-0.412-0.231-0.566c-0.154-0.155-0.351-0.231-0.585-0.231
		c-0.235,0-0.435,0.077-0.595,0.231c-0.16,0.155-0.241,0.344-0.241,0.566v7.986c0,0.235,0.077,0.435,0.231,0.595
		s0.355,0.241,0.604,0.241c0.234,0,0.431-0.081,0.585-0.241c0.155-0.161,0.231-0.359,0.231-0.595L339.269,572.839L339.269,572.839z
		 M334.606,576.404c0,0.21,0.07,0.387,0.214,0.529c0.143,0.142,0.317,0.213,0.528,0.213c0.198,0,0.368-0.074,0.512-0.223
		c0.143-0.149,0.214-0.322,0.214-0.521v-3.046c0-0.198-0.068-0.362-0.205-0.492c-0.136-0.13-0.303-0.195-0.501-0.195h-0.91v-7.206
		c0-0.224-0.077-0.412-0.232-0.566c-0.153-0.155-0.35-0.232-0.585-0.232c-0.234,0-0.427,0.078-0.575,0.232
		c-0.148,0.155-0.224,0.344-0.224,0.566v7.206h-3.956v-7.206c0-0.224-0.074-0.412-0.223-0.566c-0.149-0.155-0.341-0.232-0.576-0.232
		s-0.434,0.078-0.595,0.232c-0.16,0.155-0.241,0.344-0.241,0.566v7.913c0,0.197,0.077,0.371,0.232,0.52
		c0.153,0.148,0.337,0.223,0.548,0.223h6.575V576.404L334.606,576.404z M322.793,571.018c0,0.644-0.176,1.133-0.529,1.467
		c-0.353,0.334-0.845,0.501-1.477,0.501c-1.275,0-1.913-0.489-1.913-1.467v-0.13c0-0.979,0.656-1.467,1.969-1.467h1.95V571.018
		L322.793,571.018z M325.245,573.544c0-0.261-0.105-0.446-0.315-0.558c-0.186-0.111-0.318-0.245-0.398-0.398
		c-0.08-0.154-0.121-0.405-0.121-0.752v-3.475c0-1.288-0.251-2.229-0.752-2.823c-0.501-0.594-1.391-0.892-2.666-0.892
		c-1.164,0-2.074,0.21-2.73,0.632c-0.234,0.148-0.353,0.347-0.353,0.594c0,0.187,0.067,0.348,0.204,0.483
		c0.136,0.136,0.297,0.204,0.482,0.204c0.137,0,0.267-0.037,0.391-0.111c0.557-0.31,1.188-0.464,1.895-0.464
		c0.743,0,1.248,0.173,1.514,0.521c0.267,0.347,0.399,0.917,0.399,1.709v0.464h-2.099c-1.141,0-1.997,0.245-2.573,0.733
		c-0.576,0.489-0.864,1.137-0.864,1.941v0.147c0,0.817,0.271,1.478,0.809,1.979s1.353,0.752,2.441,0.752
		c1.176,0,2.043-0.316,2.602-0.947c0.086,0.248,0.21,0.434,0.372,0.558c0.26,0.26,0.575,0.39,0.946,0.39
		C324.973,574.231,325.245,574.003,325.245,573.544z M313.358,566.709h-6.131v-5.462c0-0.234-0.083-0.434-0.25-0.594
		c-0.167-0.161-0.361-0.242-0.585-0.242c-0.223,0-0.415,0.081-0.575,0.242c-0.161,0.161-0.241,0.359-0.241,0.594v12.203
		c0,0.235,0.081,0.435,0.241,0.595c0.161,0.16,0.353,0.241,0.575,0.241c0.224,0,0.417-0.081,0.585-0.241
		c0.167-0.161,0.25-0.359,0.25-0.595v-5.219h6.131v5.219c0,0.235,0.083,0.435,0.25,0.595s0.368,0.241,0.604,0.241
		c0.223,0,0.418-0.081,0.585-0.241c0.167-0.161,0.25-0.359,0.25-0.595v-12.203c0-0.234-0.083-0.434-0.25-0.594
		c-0.167-0.161-0.362-0.242-0.585-0.242c-0.235,0-0.436,0.081-0.604,0.242c-0.167,0.161-0.25,0.359-0.25,0.594V566.709z"/>
	<path d="M536.464,593.306c0,0.644-0.176,1.133-0.529,1.467c-0.352,0.334-0.844,0.502-1.477,0.502c-1.275,0-1.912-0.489-1.912-1.468
		v-0.13c0-0.979,0.656-1.467,1.969-1.467h1.949V593.306z M538.917,595.834c0-0.261-0.105-0.446-0.316-0.558
		c-0.186-0.112-0.318-0.245-0.398-0.398c-0.08-0.155-0.121-0.406-0.121-0.753v-3.473c0-1.288-0.25-2.229-0.752-2.823
		s-1.391-0.892-2.666-0.892c-1.164,0-2.074,0.21-2.73,0.631c-0.234,0.148-0.352,0.347-0.352,0.594c0,0.187,0.068,0.348,0.203,0.483
		c0.137,0.136,0.297,0.205,0.482,0.205c0.137,0,0.268-0.037,0.391-0.111c0.559-0.31,1.188-0.465,1.895-0.465
		c0.744,0,1.248,0.174,1.516,0.521c0.266,0.348,0.398,0.916,0.398,1.708v0.465h-2.1c-1.141,0-1.996,0.244-2.572,0.733
		s-0.863,1.136-0.863,1.941v0.147c0,0.817,0.27,1.478,0.809,1.979s1.354,0.752,2.441,0.752c1.178,0,2.043-0.315,2.602-0.947
		c0.086,0.248,0.211,0.435,0.371,0.557c0.26,0.262,0.576,0.392,0.947,0.392C538.644,596.52,538.917,596.291,538.917,595.834z
		 M526.269,596.408c1.027,0,1.779-0.227,2.258-0.678c0.477-0.452,0.715-1.068,0.715-1.848v-0.334c0-0.941-0.453-1.604-1.357-1.987
		c0.67-0.347,1.004-0.941,1.004-1.783v-0.297c0-0.729-0.244-1.325-0.732-1.783c-0.49-0.458-1.217-0.687-2.184-0.687h-2.582
		c-0.223,0-0.414,0.081-0.574,0.241c-0.162,0.16-0.242,0.347-0.242,0.557v7.783c0,0.223,0.078,0.415,0.23,0.576
		c0.156,0.16,0.352,0.24,0.586,0.24L526.269,596.408L526.269,596.408z M525.841,588.385c0.953,0,1.432,0.39,1.432,1.17v0.334
		c0,0.755-0.527,1.133-1.58,1.133h-1.504v-2.637H525.841L525.841,588.385z M526.027,592.322c0.508,0,0.902,0.103,1.188,0.308
		c0.285,0.204,0.428,0.499,0.428,0.882v0.314c0,0.396-0.107,0.697-0.324,0.901c-0.219,0.205-0.6,0.307-1.143,0.307h-1.988v-2.712
		H526.027L526.027,592.322z M514.066,595.127l4.232-4.662v5.274c0,0.235,0.078,0.434,0.232,0.595c0.154,0.16,0.35,0.24,0.586,0.24
		c0.234,0,0.43-0.08,0.584-0.24c0.156-0.161,0.232-0.359,0.232-0.595v-7.986c0-0.224-0.074-0.412-0.223-0.566
		c-0.15-0.154-0.342-0.232-0.576-0.232s-0.434,0.077-0.594,0.232c-0.162,0.155-0.242,0.344-0.242,0.566v0.612l-4.234,4.682v-5.294
		c0-0.224-0.076-0.412-0.232-0.566c-0.154-0.155-0.35-0.232-0.584-0.232c-0.236,0-0.436,0.077-0.596,0.232s-0.24,0.344-0.24,0.566
		v7.986c0,0.235,0.076,0.434,0.23,0.595c0.154,0.16,0.355,0.24,0.605,0.24c0.234,0,0.43-0.08,0.584-0.24
		c0.156-0.161,0.232-0.359,0.232-0.595v-0.612H514.066z M504.259,587.01c-0.188,0-0.348,0.07-0.482,0.213
		c-0.137,0.143-0.205,0.307-0.205,0.492c0,0.197,0.064,0.364,0.195,0.501c0.131,0.136,0.293,0.205,0.492,0.205h2.209v7.374
		c0,0.222,0.078,0.411,0.232,0.565c0.154,0.155,0.344,0.232,0.566,0.232s0.418-0.077,0.584-0.232
		c0.168-0.154,0.252-0.344,0.252-0.565v-7.374h2.209c0.188,0,0.348-0.068,0.484-0.205c0.135-0.137,0.203-0.304,0.203-0.501
		c0-0.187-0.068-0.351-0.203-0.492c-0.137-0.143-0.299-0.213-0.484-0.213H504.259z M500.339,593.306
		c0,0.644-0.176,1.133-0.529,1.467s-0.846,0.502-1.477,0.502c-1.275,0-1.914-0.489-1.914-1.468v-0.13
		c0-0.979,0.656-1.467,1.969-1.467h1.951V593.306z M502.791,595.834c0-0.261-0.105-0.446-0.314-0.558
		c-0.186-0.112-0.318-0.245-0.398-0.398c-0.08-0.154-0.121-0.406-0.121-0.753v-3.473c0-1.288-0.25-2.229-0.752-2.823
		s-1.391-0.892-2.666-0.892c-1.164,0-2.074,0.21-2.73,0.631c-0.234,0.148-0.354,0.347-0.354,0.594c0,0.187,0.068,0.348,0.205,0.483
		s0.297,0.205,0.482,0.205c0.137,0,0.268-0.037,0.391-0.111c0.557-0.31,1.188-0.465,1.895-0.465c0.742,0,1.248,0.174,1.516,0.521
		c0.266,0.348,0.398,0.916,0.398,1.708v0.465h-2.1c-1.141,0-1.996,0.244-2.572,0.733s-0.863,1.136-0.863,1.941v0.147
		c0,0.817,0.27,1.478,0.809,1.979s1.352,0.752,2.441,0.752c1.178,0,2.043-0.315,2.602-0.947c0.086,0.248,0.209,0.435,0.371,0.557
		c0.26,0.262,0.574,0.392,0.945,0.392C502.519,596.52,502.791,596.291,502.791,595.834z M486.91,595.127l4.234-4.662v5.274
		c0,0.235,0.078,0.434,0.232,0.595c0.154,0.16,0.35,0.24,0.586,0.24c0.234,0,0.43-0.08,0.584-0.24
		c0.156-0.161,0.232-0.359,0.232-0.595v-7.986c0-0.224-0.074-0.412-0.223-0.566c-0.148-0.155-0.342-0.232-0.576-0.232
		s-0.434,0.077-0.596,0.232c-0.16,0.155-0.24,0.344-0.24,0.566v0.612l-4.234,4.682v-5.294c0-0.224-0.078-0.412-0.232-0.566
		c-0.154-0.155-0.35-0.232-0.584-0.232s-0.434,0.077-0.596,0.232c-0.16,0.155-0.24,0.344-0.24,0.566v7.986
		c0,0.235,0.076,0.434,0.23,0.595c0.154,0.16,0.355,0.24,0.604,0.24c0.236,0,0.432-0.08,0.586-0.24
		c0.154-0.161,0.23-0.359,0.23-0.595v-0.612H486.91z M482.25,598.693c0,0.21,0.07,0.387,0.213,0.529s0.318,0.213,0.529,0.213
		c0.197,0,0.369-0.074,0.51-0.223c0.143-0.148,0.215-0.322,0.215-0.521v-3.047c0-0.198-0.068-0.362-0.205-0.492
		s-0.303-0.195-0.502-0.195h-0.91v-7.206c0-0.224-0.076-0.412-0.23-0.566c-0.154-0.155-0.352-0.232-0.584-0.232
		c-0.236,0-0.43,0.077-0.576,0.232c-0.148,0.155-0.223,0.344-0.223,0.566v7.206h-3.957v-7.206c0-0.224-0.074-0.412-0.225-0.566
		c-0.148-0.154-0.34-0.232-0.574-0.232s-0.434,0.077-0.596,0.232c-0.16,0.155-0.24,0.344-0.24,0.566v7.912
		c0,0.198,0.076,0.372,0.23,0.521c0.156,0.148,0.338,0.223,0.549,0.223h6.576V598.693z M466.369,595.127l4.232-4.662v5.274
		c0,0.235,0.078,0.434,0.232,0.595c0.156,0.16,0.35,0.24,0.586,0.24c0.234,0,0.43-0.08,0.584-0.24
		c0.156-0.161,0.232-0.359,0.232-0.595v-7.986c0-0.224-0.074-0.412-0.223-0.566s-0.342-0.232-0.576-0.232s-0.434,0.077-0.594,0.232
		c-0.162,0.155-0.242,0.344-0.242,0.566v0.612l-4.234,4.682v-5.294c0-0.224-0.076-0.412-0.232-0.566
		c-0.152-0.155-0.35-0.232-0.584-0.232s-0.434,0.077-0.596,0.232c-0.16,0.155-0.24,0.344-0.24,0.566v7.986
		c0,0.235,0.076,0.434,0.232,0.595c0.152,0.16,0.354,0.24,0.604,0.24c0.234,0,0.432-0.08,0.584-0.24
		c0.156-0.161,0.232-0.359,0.232-0.595v-0.612H466.369z M462.078,587.753c0-0.224-0.08-0.415-0.242-0.576
		c-0.16-0.161-0.352-0.241-0.576-0.241c-0.223,0-0.414,0.08-0.574,0.241s-0.24,0.353-0.24,0.576v3.046h-3.697v-3.046
		c0-0.224-0.078-0.415-0.232-0.576s-0.344-0.241-0.564-0.241c-0.223,0-0.418,0.08-0.586,0.241s-0.25,0.353-0.25,0.576v7.986
		c0,0.224,0.082,0.412,0.25,0.567c0.168,0.154,0.361,0.23,0.586,0.23c0.223,0,0.41-0.076,0.564-0.23
		c0.154-0.155,0.232-0.344,0.232-0.567v-3.528h3.697v3.528c0,0.224,0.08,0.412,0.24,0.567c0.16,0.154,0.354,0.23,0.574,0.23
		c0.225,0,0.416-0.076,0.576-0.23c0.162-0.155,0.242-0.344,0.242-0.567V587.753z M446.587,595.127l4.234-4.662v5.274
		c0,0.235,0.078,0.434,0.23,0.595c0.156,0.16,0.352,0.24,0.586,0.24s0.432-0.08,0.586-0.24c0.154-0.161,0.23-0.359,0.23-0.595
		v-7.986c0-0.224-0.074-0.412-0.223-0.566s-0.342-0.232-0.576-0.232s-0.434,0.077-0.594,0.232s-0.24,0.344-0.24,0.566v0.612
		l-4.236,4.682v-5.294c0-0.224-0.076-0.412-0.232-0.566c-0.152-0.155-0.35-0.232-0.584-0.232s-0.434,0.077-0.596,0.232
		c-0.16,0.155-0.24,0.344-0.24,0.566v7.986c0,0.235,0.078,0.434,0.232,0.595c0.154,0.16,0.355,0.24,0.604,0.24
		c0.234,0,0.432-0.08,0.584-0.24c0.156-0.161,0.232-0.359,0.232-0.595v-0.612H446.587z M436.818,587.827
		c0-0.223-0.08-0.415-0.242-0.575c-0.16-0.161-0.359-0.241-0.594-0.241h-2.49c-1.039,0-1.811,0.237-2.313,0.715
		c-0.502,0.477-0.752,1.068-0.752,1.774v0.52c0,0.595,0.146,1.105,0.438,1.533c0.291,0.427,0.715,0.721,1.271,0.882
		c-0.568,0.879-1.115,1.814-1.635,2.805c-0.125,0.235-0.186,0.434-0.186,0.595c0,0.21,0.076,0.384,0.23,0.52
		s0.338,0.204,0.549,0.204c0.383,0,0.639-0.154,0.762-0.465c0.793-1.584,1.424-2.742,1.895-3.474h1.43v3.14
		c0,0.223,0.078,0.412,0.232,0.565c0.156,0.155,0.344,0.232,0.566,0.232c0.234,0,0.434-0.077,0.596-0.232
		c0.16-0.153,0.24-0.343,0.24-0.565v-7.932H436.818z M433.568,591.319c-0.547,0-0.941-0.121-1.189-0.362
		c-0.248-0.24-0.371-0.528-0.371-0.863v-0.521c0-0.31,0.119-0.582,0.361-0.816c0.242-0.235,0.635-0.354,1.18-0.354h1.635v2.916
		H433.568L433.568,591.319z M426.267,593.306c0,0.644-0.176,1.133-0.527,1.467c-0.355,0.334-0.848,0.502-1.479,0.502
		c-1.273,0-1.912-0.489-1.912-1.468v-0.13c0-0.979,0.656-1.467,1.969-1.467h1.949V593.306L426.267,593.306z M428.718,595.834
		c0-0.261-0.104-0.446-0.314-0.558c-0.186-0.112-0.318-0.245-0.398-0.398c-0.08-0.155-0.121-0.406-0.121-0.753v-3.473
		c0-1.288-0.25-2.229-0.752-2.823s-1.391-0.892-2.666-0.892c-1.164,0-2.074,0.21-2.729,0.631c-0.236,0.148-0.354,0.347-0.354,0.594
		c0,0.187,0.067,0.348,0.204,0.483s0.297,0.205,0.482,0.205c0.137,0,0.268-0.037,0.391-0.111c0.557-0.31,1.189-0.465,1.896-0.465
		c0.742,0,1.246,0.174,1.514,0.521c0.266,0.348,0.398,0.916,0.398,1.708v0.465h-2.1c-1.139,0-1.996,0.244-2.572,0.733
		c-0.576,0.489-0.863,1.136-0.863,1.941v0.147c0,0.817,0.27,1.478,0.808,1.979c0.539,0.502,1.352,0.752,2.441,0.752
		c1.178,0,2.045-0.315,2.602-0.947c0.086,0.248,0.211,0.435,0.371,0.557c0.26,0.262,0.576,0.392,0.947,0.392
		C428.447,596.52,428.718,596.291,428.718,595.834z M414.604,587.753c0-0.224-0.08-0.412-0.241-0.566
		c-0.16-0.155-0.354-0.232-0.575-0.232c-0.225,0-0.412,0.077-0.566,0.232s-0.231,0.344-0.231,0.566v7.986
		c0,0.224,0.077,0.415,0.231,0.576s0.344,0.241,0.566,0.241s0.415-0.08,0.575-0.241c0.161-0.161,0.241-0.353,0.241-0.576v-3.269
		h1.004c0.865,1.114,1.745,2.328,2.638,3.641c0.173,0.297,0.414,0.445,0.724,0.445c0.235,0,0.429-0.074,0.576-0.223
		c0.148-0.149,0.223-0.328,0.223-0.539c0-0.187-0.05-0.342-0.147-0.465c-0.693-1.041-1.572-2.24-2.638-3.604l2.601-3.511
		c0.111-0.137,0.167-0.297,0.167-0.483c0-0.21-0.074-0.396-0.223-0.557c-0.149-0.161-0.342-0.241-0.576-0.241
		c-0.297,0-0.538,0.147-0.726,0.446l-2.637,3.622h-0.983v-3.25H414.604z M411.056,588.366c0.198-0.384,0.1-0.688-0.297-0.909
		c-0.582-0.359-1.355-0.539-2.321-0.539c-1.177,0-2.084,0.396-2.722,1.188s-0.957,1.79-0.957,2.991v1.3c0,1.251,0.304,2.251,0.91,3
		s1.529,1.124,2.769,1.124c0.892,0,1.665-0.18,2.321-0.539c0.161-0.086,0.275-0.21,0.344-0.372c0.067-0.161,0.064-0.34-0.01-0.539
		c-0.074-0.173-0.194-0.291-0.361-0.353c-0.167-0.063-0.345-0.057-0.529,0.019c-0.508,0.26-1.071,0.391-1.69,0.391
		c-0.706,0-1.234-0.232-1.588-0.696c-0.353-0.464-0.529-1.118-0.529-1.959v-1.505c0-0.806,0.192-1.449,0.576-1.933
		c0.385-0.482,0.916-0.724,1.598-0.724c0.618,0,1.151,0.124,1.598,0.371c0.186,0.075,0.359,0.083,0.521,0.028
		C410.849,588.654,410.969,588.539,411.056,588.366z M401.305,590.929H397.2v-0.315c0-1.585,0.688-2.378,2.063-2.378
		c1.361,0,2.043,0.787,2.043,2.359L401.305,590.929L401.305,590.929z M402.902,591.579v-0.762c0-1.164-0.291-2.104-0.873-2.823
		c-0.582-0.718-1.512-1.077-2.786-1.077c-1.228,0-2.144,0.368-2.749,1.105c-0.607,0.737-0.91,1.681-0.91,2.833v1.728
		c0,1.164,0.297,2.111,0.892,2.843c0.595,0.729,1.518,1.096,2.769,1.096c1.102,0,2.08-0.223,2.935-0.668
		c0.359-0.198,0.464-0.489,0.315-0.873c-0.063-0.186-0.177-0.313-0.344-0.381c-0.167-0.068-0.337-0.065-0.512,0.009
		c-0.655,0.347-1.437,0.521-2.34,0.521c-1.398,0-2.1-0.806-2.1-2.415v-0.501h5.071c0.173,0,0.321-0.06,0.444-0.177
		C402.84,591.918,402.902,591.765,402.902,591.579z M393.262,587.753c0-0.224-0.08-0.412-0.24-0.566
		c-0.161-0.154-0.354-0.232-0.576-0.232c-0.224,0-0.414,0.077-0.575,0.232s-0.241,0.344-0.241,0.566v3.622
		c-0.645,0.223-1.27,0.334-1.876,0.334c-1.152,0-1.728-0.582-1.728-1.746v-2.21c0-0.224-0.078-0.412-0.232-0.566
		s-0.35-0.232-0.585-0.232c-0.223,0-0.415,0.077-0.576,0.232s-0.241,0.344-0.241,0.566v2.396c0,1.003,0.261,1.755,0.78,2.256
		c0.521,0.501,1.271,0.752,2.247,0.752c0.669,0,1.405-0.124,2.211-0.372v2.954c0,0.235,0.08,0.434,0.241,0.594
		c0.161,0.161,0.353,0.241,0.575,0.241c0.224,0,0.415-0.08,0.576-0.241c0.16-0.16,0.24-0.358,0.24-0.594V587.753L393.262,587.753z
		 M377.938,595.127l4.235-4.662v5.274c0,0.235,0.077,0.434,0.232,0.595c0.153,0.16,0.35,0.24,0.585,0.24
		c0.234,0,0.43-0.08,0.585-0.24c0.153-0.161,0.231-0.359,0.231-0.595v-7.986c0-0.224-0.073-0.412-0.224-0.566
		c-0.148-0.155-0.34-0.232-0.575-0.232s-0.434,0.077-0.595,0.232s-0.241,0.344-0.241,0.566v0.612l-4.235,4.682v-5.294
		c0-0.224-0.076-0.412-0.23-0.566c-0.155-0.155-0.352-0.232-0.586-0.232c-0.235,0-0.434,0.077-0.594,0.232
		c-0.161,0.155-0.242,0.344-0.242,0.566v7.986c0,0.235,0.078,0.434,0.231,0.595c0.155,0.16,0.356,0.24,0.604,0.24
		c0.234,0,0.431-0.08,0.586-0.24c0.154-0.161,0.23-0.359,0.23-0.595L377.938,595.127L377.938,595.127z M374.818,587.734
		c0-0.198-0.074-0.368-0.224-0.511c-0.147-0.143-0.321-0.213-0.521-0.213h-4.699c-0.223,0-0.411,0.081-0.566,0.241
		c-0.153,0.16-0.231,0.347-0.231,0.557v7.95c0,0.223,0.078,0.412,0.231,0.565c0.155,0.155,0.345,0.232,0.566,0.232
		s0.415-0.077,0.576-0.232c0.161-0.153,0.241-0.343,0.241-0.565v-7.3h3.882c0.197,0,0.372-0.071,0.521-0.215
		C374.744,588.103,374.818,587.932,374.818,587.734z M364.621,592.676c0,1.572-0.705,2.358-2.117,2.358
		c-0.321,0-0.619-0.049-0.892-0.147l2.508-5.628c0.334,0.334,0.501,0.842,0.501,1.522V592.676z M363.414,588.552l-2.508,5.628
		c-0.334-0.322-0.501-0.823-0.501-1.504v-1.896c0-1.573,0.698-2.358,2.099-2.358C362.863,588.422,363.167,588.466,363.414,588.552z
		 M366.237,592.676v-1.913c0-1.449-0.458-2.508-1.374-3.177l0.334-0.725c0.11-0.297,0.031-0.507-0.241-0.631
		c-0.298-0.111-0.508-0.031-0.632,0.242l-0.297,0.687c-0.458-0.161-0.967-0.241-1.523-0.241c-1.25,0-2.186,0.356-2.805,1.068
		s-0.929,1.638-0.929,2.777v1.913c0,1.461,0.465,2.52,1.394,3.176l-0.335,0.724c-0.049,0.112-0.049,0.229,0,0.354
		c0.05,0.125,0.13,0.211,0.242,0.261c0.271,0.124,0.477,0.05,0.611-0.224l0.316-0.688c0.458,0.161,0.959,0.241,1.504,0.241
		c1.265,0,2.201-0.354,2.814-1.068C365.931,594.74,366.237,593.814,366.237,592.676z M350.431,587.01
		c-0.21,0-0.393,0.07-0.548,0.213c-0.154,0.143-0.231,0.319-0.231,0.529v2.21c0,1.969-0.148,3.337-0.445,4.104
		c-0.099,0.322-0.267,0.645-0.502,0.966c-0.234,0.322-0.354,0.576-0.354,0.763c0,0.21,0.077,0.393,0.232,0.548
		c0.154,0.153,0.344,0.23,0.566,0.23c0.458,0,0.886-0.384,1.28-1.15c0.57-1.152,0.854-2.879,0.854-5.183v-1.782h3.528v7.337
		c0,0.222,0.074,0.411,0.224,0.565c0.147,0.155,0.341,0.232,0.576,0.232c0.248,0,0.448-0.077,0.604-0.232
		c0.155-0.154,0.232-0.344,0.232-0.565v-8.007c0-0.21-0.077-0.393-0.232-0.548c-0.154-0.154-0.337-0.231-0.548-0.231L350.431,587.01
		L350.431,587.01z M345.342,592.676c0,1.572-0.706,2.358-2.117,2.358c-1.398,0-2.099-0.786-2.099-2.358v-1.896
		c0-1.573,0.699-2.358,2.099-2.358c1.411,0,2.117,0.785,2.117,2.358V592.676z M346.958,592.676v-1.913
		c0-1.14-0.307-2.065-0.92-2.777c-0.612-0.712-1.551-1.067-2.813-1.067c-1.251,0-2.186,0.355-2.805,1.067s-0.929,1.638-0.929,2.777
		v1.913c0,1.139,0.31,2.064,0.929,2.776s1.554,1.068,2.805,1.068c1.264,0,2.201-0.355,2.813-1.068
		C346.651,594.74,346.958,593.814,346.958,592.676z M337.17,587.753c0-0.224-0.081-0.415-0.242-0.576s-0.353-0.241-0.575-0.241
		c-0.224,0-0.415,0.08-0.575,0.241c-0.161,0.161-0.241,0.353-0.241,0.576v3.046h-3.696v-3.046c0-0.224-0.078-0.415-0.231-0.576
		c-0.155-0.161-0.345-0.241-0.566-0.241s-0.418,0.08-0.585,0.241s-0.251,0.353-0.251,0.576v7.986c0,0.224,0.084,0.412,0.251,0.567
		c0.167,0.154,0.362,0.23,0.585,0.23s0.411-0.076,0.566-0.23c0.153-0.155,0.231-0.344,0.231-0.567v-3.528h3.696v3.528
		c0,0.224,0.08,0.412,0.241,0.567c0.161,0.154,0.353,0.23,0.575,0.23c0.224,0,0.414-0.076,0.575-0.23
		c0.161-0.155,0.242-0.344,0.242-0.567V587.753z M328.532,595.74c0-0.136-0.024-0.26-0.074-0.372
		c-0.482-0.929-1.355-2.197-2.619-3.808c1.103-1.461,1.876-2.645,2.322-3.548c0.062-0.148,0.093-0.267,0.093-0.354
		c0-0.21-0.083-0.384-0.251-0.52c-0.167-0.136-0.354-0.204-0.566-0.204c-0.297,0-0.52,0.142-0.668,0.427
		c-0.421,0.806-1.059,1.783-1.912,2.936c-0.83-1.115-1.443-2.086-1.84-2.916c-0.16-0.298-0.408-0.446-0.742-0.446
		c-0.224,0-0.422,0.074-0.595,0.223c-0.173,0.149-0.26,0.334-0.26,0.558c0,0.136,0.024,0.26,0.074,0.372
		c0.495,0.966,1.288,2.142,2.377,3.528c-1.201,1.512-2.074,2.78-2.619,3.809c-0.049,0.11-0.074,0.234-0.074,0.372
		c0,0.21,0.081,0.386,0.242,0.528c0.161,0.144,0.347,0.214,0.557,0.214c0.298,0,0.526-0.142,0.688-0.427
		c0.434-0.83,1.152-1.914,2.155-3.251c1.064,1.461,1.776,2.532,2.136,3.214c0.148,0.31,0.39,0.464,0.725,0.464
		c0.224,0,0.421-0.076,0.595-0.23C328.446,596.151,328.532,595.963,328.532,595.74z M318.373,590.929h-4.105v-0.315
		c0-1.585,0.688-2.378,2.063-2.378c1.362,0,2.043,0.787,2.043,2.359V590.929z M319.97,591.579v-0.762
		c0-1.164-0.291-2.104-0.873-2.823c-0.582-0.718-1.511-1.077-2.786-1.077c-1.226,0-2.142,0.368-2.748,1.105s-0.91,1.681-0.91,2.833
		v1.728c0,1.164,0.297,2.111,0.892,2.843c0.595,0.729,1.517,1.096,2.769,1.096c1.102,0,2.08-0.223,2.935-0.668
		c0.359-0.198,0.464-0.489,0.315-0.873c-0.063-0.186-0.177-0.313-0.345-0.381c-0.167-0.068-0.337-0.065-0.511,0.009
		c-0.656,0.347-1.436,0.521-2.34,0.521c-1.399,0-2.1-0.806-2.1-2.415v-0.501h5.071c0.173,0,0.322-0.06,0.446-0.177
		C319.908,591.918,319.97,591.765,319.97,591.579z M304.814,587.01c-0.187,0-0.348,0.07-0.483,0.213s-0.204,0.307-0.204,0.492
		c0,0.197,0.065,0.364,0.195,0.501c0.13,0.136,0.294,0.205,0.492,0.205h2.21v7.374c0,0.222,0.076,0.411,0.231,0.565
		c0.155,0.155,0.344,0.232,0.567,0.232c0.223,0,0.418-0.077,0.585-0.232c0.167-0.154,0.25-0.344,0.25-0.565v-7.374h2.21
		c0.186,0,0.347-0.068,0.482-0.205c0.137-0.138,0.205-0.304,0.205-0.501c0-0.187-0.067-0.351-0.205-0.492
		c-0.136-0.143-0.297-0.213-0.482-0.213H304.814z"/>
	<path d="M330.852,610.781h-24.976c-0.038,0-0.074,0.035-0.098,0.105s-0.038,0.158-0.038,0.269c0,0.105,0.014,0.197,0.038,0.271
		c0.023,0.073,0.061,0.108,0.098,0.108h24.976V610.781z"/>
	<path fill="#86888A" d="M369.895,610.887c-0.025-0.07-0.058-0.105-0.096-0.105h-38.947v0.754h38.947
		c0.038,0,0.069-0.034,0.096-0.108c0.023-0.073,0.037-0.165,0.037-0.271C369.932,611.046,369.918,610.959,369.895,610.887z"/>
</g>
<g>
	<path d="M308.085,632.847c0,0.678-0.568,1.265-1.263,1.265c-0.697,0-1.247-0.587-1.247-1.265V621.69
		c0-0.696,0.55-1.263,1.247-1.263c0.694,0,1.263,0.565,1.263,1.263v6.706l5.075-5.662v-1.044c0-0.696,0.586-1.263,1.265-1.263
		c0.695,0,1.264,0.565,1.264,1.263v11.156c0,0.678-0.568,1.265-1.264,1.265c-0.679,0-1.265-0.587-1.265-1.265v-6.722l-5.075,5.678
		V632.847z"/>
	<path d="M323.243,622.698c-1.612,0-2.399,1.044-2.399,3.628v1.942c0,2.675,0.787,3.571,2.29,3.571c0.586,0,1.136-0.129,1.575-0.439
		c0.312-0.146,0.531-0.256,0.806-0.256c0.568,0,1.044,0.438,1.044,1.062c0,0.35-0.146,0.68-0.493,0.972
		c-0.733,0.66-2.053,0.935-2.932,0.935c-3.48,0-4.837-2.345-4.837-5.825v-2.032c0-3.335,1.338-5.809,4.946-5.809
		c0.989,0,2.162,0.274,2.803,0.823c0.385,0.295,0.531,0.643,0.531,0.973c0,0.514-0.385,1.099-1.154,1.099
		c-0.273,0.02-0.458-0.073-0.788-0.274C324.288,622.826,323.829,622.698,323.243,622.698z"/>
	<path d="M339.299,629.002h-2.308v3.846c0,0.695-0.568,1.265-1.265,1.265c-0.715,0-1.265-0.567-1.265-1.265v-10.991
		c0-0.678,0.55-1.265,1.265-1.265h3.463c3.168,0,4.176,1.961,4.176,3.773v0.936C343.366,627.497,341.9,629.002,339.299,629.002z
		 M340.856,624.42c0-0.713-0.366-1.444-1.888-1.444h-1.978v3.717h2.217c1.246,0,1.648-0.695,1.648-1.428V624.42L340.856,624.42z"/>
	<path d="M352.643,633.946h-5.953c-0.659,0-1.19-0.531-1.19-1.209v-10.937c0-0.66,0.531-1.209,1.19-1.209h5.696
		c0.68,0,1.208,0.549,1.208,1.209s-0.529,1.19-1.208,1.19h-4.359v3.114h3.957c0.641,0,1.173,0.532,1.173,1.173
		c0,0.642-0.532,1.153-1.173,1.153h-3.957v3.116h4.616c0.66,0,1.19,0.528,1.19,1.188
		C353.833,633.415,353.303,633.946,352.643,633.946z"/>
	<path d="M358.4,632.847c0,0.678-0.568,1.265-1.265,1.265s-1.246-0.587-1.246-1.265V621.69c0-0.696,0.55-1.263,1.246-1.263
		s1.265,0.565,1.265,1.263v6.706l5.073-5.662v-1.044c0-0.696,0.587-1.263,1.266-1.263c0.695,0,1.265,0.565,1.265,1.263v11.156
		c0,0.678-0.568,1.265-1.265,1.265c-0.677,0-1.266-0.587-1.266-1.265v-6.722l-5.073,5.678V632.847z"/>
	<path d="M369.637,631.549c0.896-1.082,1.008-3.189,1.008-5.534v-4.194c0-0.68,0.568-1.209,1.227-1.209h6.631
		c0.68,0,1.209,0.529,1.209,1.209v9.729h1.082c0.622,0,1.117,0.476,1.117,1.098v3.719c0,0.642-0.532,1.173-1.172,1.173
		c-0.642,0-1.172-0.531-1.172-1.173v-2.418h-9.654v2.418c0,0.642-0.531,1.173-1.172,1.173c-0.66,0-1.191-0.531-1.191-1.173v-3.719
		c0-0.641,0.568-1.098,1.119-1.098L369.637,631.549L369.637,631.549z M377.184,631.549v-8.539h-3.992v3.005
		c0,2.328-0.165,4.178-0.752,5.534H377.184z"/>
</g>
</svg>
